<?xml version="1.0" standalone="no"?><!DOCTYPE svg PUBLIC "-//W3C//DTD SVG 1.1//EN" "http://www.w3.org/Graphics/SVG/1.1/DTD/svg11.dtd"><svg t="1494831997261" class="icon" style="" viewBox="0 0 1024 1024" version="1.1" xmlns="http://www.w3.org/2000/svg" p-id="2380" xmlns:xlink="http://www.w3.org/1999/xlink" width="32" height="32"><defs><style type="text/css"></style></defs><path d="M862.13496 396.546501c-16.265452-26.214035-43.874253-40.97625-72.5432-42.103934-1.486864-0.228197-2.994194-0.379647-4.541433-0.379647l-167.897941-0.184195c11.384281-32.550347 17.60803-67.521836 17.60803-103.965863 0-23.632233-2.686179-46.62797-7.611352-68.781526l-0.444115 0.055259c-8.962116-38.801724-43.658336-67.765383-85.190241-67.765383-48.334845 0-87.509053 39.181371-87.509053 87.503936 0 2.674922 0.167822 5.304819 0.396019 7.919367-2.598174 92.892667-75.376735 168.189583-167.222559 174.765349l0 0.562818-99.824543 0.236384c-1.207501-0.148379-2.422166-0.24764-3.665483-0.24764-16.616446 0-30.087249 13.46671-30.087249 30.080086l-0.272199 361.115548c0 16.607236 13.462616 30.075992 30.083156 30.075992 1.63115 0 3.218298-0.164752 4.780887-0.411369l111.052259 0.048095c1.466398 0.220011 2.950192 0.363274 4.472871 0.363274 1.526773 0 3.00545-0.144286 4.464685-0.360204l417.504836 0.171915 0 0.180102c16.356526 0.031722 32.913621-4.369517 47.739281-13.791098 14.074553-8.953929 24.663726-21.242813 31.618115-35.145451 1.910513-2.774183 3.417843-5.895267 4.328585-9.332553l65.00041-286.897196c0.899486-3.40147 1.143033-6.819313 0.874927-10.145058C876.60451 431.945733 872.479563 413.219229 862.13496 396.546501L862.13496 396.546501zM333.988212 748.823753l-60.159148-0.01228 0.228197-300.535821c0 0 36.755112-0.232291 60.2185-7.502881L333.988212 748.823753 333.988212 748.823753zM333.988212 748.823753" p-id="2381"></path></svg>